Simulation
nRows=28
nColumns=15
endheader
time  TH_x TH_y TH_z SC_y  SC_z  SC_x  AC_y  AC_z  AC_x  GH_y  GH_z  GH_yy  EL_x  PS_y
8.6175  0.000000  0.000000  0.000000  -42.16091392831864  3.2341279860980214  -1.1213256103875668  40.74851241871467  3.8307949022808936  -2.9661400258422566  88.25148712304407  6.235703662313973  -64.74946509118004  20.457976165239252  120.000000
8.67495  0.000000  0.000000  0.000000  -40.40601850617462  2.3988031265379934  -2.467469217418383  39.89981482818114  3.8652392743925845  -3.5234550094822756  76.19928527693554  7.22581483994546  -53.88411009996589  20.35623699805597  120.000000
8.7324  0.000000  0.000000  0.000000  -38.50217540859839  1.4304934071849171  -4.073793154363893  39.18391185926381  3.9780099603298034  -3.8321029536105207  67.36353486676879  8.931124878911524  -46.21287779929285  20.437947878744147  120.000000
8.78985  0.000000  0.000000  0.000000  -36.63698851610219  0.39504832782266097  -5.796566949388112  38.675006051751346  4.088713730064042  -3.689979177375474  61.74253507171727  11.179597176333717  -41.6753848792097  20.694801056245097  120.000000
8.8473  0.000000  0.000000  0.000000  -35.009100855827604  -0.5722416792998676  -7.5100696946597045  38.511575055861606  4.148540325362816  -2.9353074035572413  58.24840456615738  13.7811560478898  -39.19597107126013  21.0653634260672  120.000000
8.90475  0.000000  0.000000  0.000000  -33.78629154421142  -1.3363598644505326  -9.207670985140654  38.885409847589294  4.231389369240269  -1.475229705495216  55.92397004848352  16.599354626293394  -37.901417025499974  21.457008031930588  120.000000
8.9622  0.000000  0.000000  0.000000  -33.09605999149914  -1.794472344765868  -10.939585108805362  39.88743555337958  4.494874359790968  0.6861134326072045  54.23959683396613  19.540094645275204  -37.368570406182215  21.782188286301047  120.000000
9.01965  0.000000  0.000000  0.000000  -33.00779164839447  -1.8922726287788374  -12.708713769535523  41.44037922932152  5.077936102446486  3.419919344095546  53.01104827588044  22.531127966537166  -37.50170876090758  21.98443416031682  120.000000
9.0771  0.000000  0.000000  0.000000  -33.53149058393009  -1.6179926549631771  -14.455745713291266  43.38408345035417  6.035233087193109  6.522372872903912  52.266353957086686  25.52479015601853  -38.39225733795071  22.044301978653895  120.000000
9.13455  0.000000  0.000000  0.000000  -34.58238886797466  -0.8990661353662727  -16.057907456524635  45.60927581921062  7.314237714998475  9.76318620310776  52.13126473411767  28.508056593088003  -40.19071481145687  21.98187423115677  120.000000
9.192  0.000000  0.000000  0.000000  -35.93145315529112  0.35751545072560315  -17.324164929947425  48.13802823358385  8.848529893198776  12.852500161617664  52.64556645103911  31.542924143237197  -42.961511259987766  21.82507759112428  120.000000
9.24945  0.000000  0.000000  0.000000  -37.34751989998039  2.1988402519031185  -17.95661095281317  50.965203440707356  10.592297861368783  15.562712417841148  53.75965477523697  34.63863429466803  -46.650648253701426  21.595311580841756  120.000000
9.3069  0.000000  0.000000  0.000000  -38.77395074488793  4.577953701513516  -17.533626247353812  53.83006040346693  12.427055066739788  17.945416016405773  55.481851860616196  37.579093521226746  -51.13192260745801  21.317817110173753  120.000000
9.36435  0.000000  0.000000  0.000000  -40.28518091727251  7.3001181534030755  -15.632228611837823  56.359216792107155  14.151887167384675  20.231084383884575  57.83043384732306  40.117467950389404  -56.2606802585974  21.00413869995656  120.000000
9.421800000000001  0.000000  0.000000  0.000000  -41.97050934184965  10.201661329890598  -12.01248599564559  58.35639808660354  15.543762822199911  22.53406432959716  60.660385358872105  42.22942079840758  -61.85793085707654  20.651187720310073  120.000000
9.47925  0.000000  0.000000  0.000000  -43.88423637853213  13.309456046521245  -6.694972452475936  59.86353861205163  16.409726139995712  24.73122222232108  63.55370702593609  44.090768684914174  -67.60764155765607  20.243964248179893  120.000000
9.5367  0.000000  0.000000  0.000000  -46.09736692404669  16.60084245038746  0.09746879462161875  61.02305582836774  16.611953091212936  26.603121348275053  65.9375573437239  45.876734540171334  -73.0431593517288  19.794899468174613  120.000000
9.59415  0.000000  0.000000  0.000000  -48.65620134131816  19.776987861888145  8.000080063438423  61.883173918990316  15.992064936700872  28.11649496501137  67.46906174778339  47.53450150494798  -77.7443029420098  19.324525727160488  120.000000
9.6516  0.000000  0.000000  0.000000  -51.48259853501254  22.406942198399317  16.524018439825237  62.46819736626531  14.443634401719958  29.320241558239864  68.15025185763328  48.87512202811872  -81.46034591274393  18.852230040378284  120.000000
9.70905  0.000000  0.000000  0.000000  -54.33074881661884  24.20921134190598  25.225157509488394  62.90156910474847  11.968785882442095  30.039166775459368  68.09507923871156  49.827051812431755  -84.07223050403226  18.425229598947148  120.000000
9.7665  0.000000  0.000000  0.000000  -56.824496631713366  25.192394879844198  33.699311622614005  63.269975118718115  8.70843486563311  30.047117978686167  67.4860995749686  50.43658073796159  -85.60250732909516  18.085790597929886  120.000000
9.82395  0.000000  0.000000  0.000000  -58.642517393733634  25.522361829349816  41.45109128302421  63.55462157995204  4.969271568218222  29.341448760544797  66.5928202477584  50.77422744669299  -86.22096588707748  17.854325526198345  120.000000
9.8814  0.000000  0.000000  0.000000  -59.638259554571874  25.41966514185126  48.03852243975166  63.71412874762264  1.101274482888939  28.054397196980823  65.67842545720086  50.91369843216843  -86.18233078141728  17.733715088349296  120.000000
9.93885  0.000000  0.000000  0.000000  -59.82639010507413  25.10051943436806  53.17953298815748  63.72738257950282  -2.57979371477417  26.349231771785846  64.94548294083837  50.90387433837883  -85.75872413983714  17.71430779392989  120.000000
9.9963  0.000000  0.000000  0.000000  -59.347566649862515  24.75369740244654  56.73654741323776  63.59648337619565  -5.849606605745662  24.420581846459097  64.53171637620792  50.758847245797796  -85.19285038681181  17.769746166315493  120.000000
10.05375  0.000000  0.000000  0.000000  -58.48280285055281  24.603976737903977  58.73931850025844  63.33571063489051  -8.621644953771666  22.481820229430998  64.52933741769903  50.46734395452331  -84.64870817439932  17.86012069675751  120.000000
10.1112  0.000000  0.000000  0.000000  -57.45164269698692  24.74296981335572  59.21591139530792  62.986440885866074  -10.857501845809542  20.686034843370866  64.95115022953016  50.03797132334026  -84.14659579095638  17.951099670180632  120.000000
10.16865  0.000000  0.000000  0.000000  -56.20138991510895  24.94581685268372  58.01787843397887  62.61626333405608  -12.479417040961309  19.06990270264483  65.6701255974335  49.52894652139726  -83.50020195478565  18.025442771423457  120.000000
